<?xml version="1.0" encoding="iso-8859-1"?>
<!-- Generator: Adobe Illustrator 16.0.0, SVG Export Plug-In . SVG Version: 6.00 Build 0)  -->
<!DOCTYPE svg PUBLIC "-//W3C//DTD SVG 1.1//EN" "http://www.w3.org/Graphics/SVG/1.1/DTD/svg11.dtd">
<svg version="1.1" id="Capa_1" xmlns="http://www.w3.org/2000/svg" xmlns:xlink="http://www.w3.org/1999/xlink" x="0px" y="0px"
	 width="553.193px" height="553.193px" viewBox="0 0 553.193 553.193" style="enable-background:new 0 0 553.193 553.193;"
	 xml:space="preserve">
<g>
	<g>
		<path d="M322.05,223.05c-1.704-0.486-3.77,1.08-5.018,2.044c-1.473,1.142-2.623,3.094-3.636,4.648
			c-2.06,3.158-3.293,7.029-4.165,10.67c-0.416,2.583-5.96,9.774,0.915,5.368c2.115-1.356,4.887,1.187,7.313,1.665
			c2.497,0.493,4.856,0.805,7.396,0.447c5.737-0.808,8.525-4.605,11.025-9.443c2.31-4.474,5.309-9.676,5.633-14.819
			c0.083-0.49,0.731-1.436-0.049-1.674c-0.838-0.083-1.668-0.227-2.503-0.315c-1.414-0.15-2.916-0.04-4.293,0.318
			c-2.662,0.695-5.588,1.215-7.764,3.002c-0.719,0.59-6.312,7.035-6.992,4.988c-0.56-1.004,1.037-2.907,1.476-3.746
			C321.696,225.621,322.739,223.702,322.05,223.05z"/>
		<path d="M86.954,200.079c-1.64,1.401-3.106-7.007-3.415-7.883c-0.942-2.653-3.179-4.608-5.101-6.576
			c-0.995-1.019-2.225-1.885-3.513-2.488c-0.762-0.355-1.545-0.661-2.308-1.022c-0.789-0.199-0.722,0.945-0.906,1.407
			c-2.377,4.569-2.494,10.576-2.821,15.6c-0.355,5.435,0.074,10.125,4.572,13.779c1.992,1.619,4.174,2.567,6.567,3.433
			c2.326,0.842,6.013,0.098,7.124,2.347c3.617,7.322,2.58-1.698,3.553-4.125c1.132-3.568,2.072-7.519,1.937-11.289
			c-0.067-1.854-0.046-4.119-0.716-5.856c-0.572-1.472-1.533-3.88-3.243-4.342c-0.927,0.202-1.022,2.384-1.062,3.044
			C87.565,197.056,87.954,199.51,86.954,200.079z"/>
		<path d="M95.944,272.858c2.732,2.898,5.899,4.801,9.403,6.622c3.409,1.769,9.235,1.377,10.487,5.064
			c4.073,12.004,4.314-2.09,6.31-5.625c2.469-5.259,4.722-11.146,5.285-16.973c0.275-2.868,0.771-6.35,0.092-9.159
			c-0.579-2.381-1.57-6.282-4.106-7.341c-1.469,0.122-2.06,3.458-2.255,4.467c-0.278,1.441-0.184,5.297-1.836,5.97
			c-2.809,1.824-3.351-11.414-3.651-12.825c-0.909-4.275-3.95-7.735-6.508-11.16c-1.322-1.769-3.039-3.354-4.899-4.544
			c-1.102-0.704-2.243-1.334-3.342-2.044c-1.175-0.468-1.304,1.307-1.68,1.983c-4.59,6.549-5.992,15.765-7.521,23.431
			C90.065,259.015,89.766,266.319,95.944,272.858z"/>
		<path d="M239.846,173.503c-1.469,0.123-2.059,3.458-2.255,4.467c-0.279,1.441-0.184,5.297-1.836,5.97
			c-2.809,1.824-3.351-11.414-3.651-12.824c-0.909-4.275-3.95-7.739-6.508-11.16c-1.322-1.769-3.039-3.354-4.899-4.544
			c-1.102-0.704-2.243-1.334-3.341-2.044c-1.175-0.468-1.304,1.307-1.68,1.983c-4.59,6.548-5.991,15.765-7.521,23.43
			c-1.652,8.29-1.952,15.597,4.226,22.136c2.732,2.897,5.899,4.801,9.403,6.622c3.409,1.769,9.235,1.377,10.487,5.064
			c4.073,12.004,4.314-2.087,6.31-5.625c2.469-5.26,4.722-11.147,5.285-16.974c0.275-2.867,0.771-6.35,0.092-9.159
			C243.372,178.463,242.383,174.562,239.846,173.503z"/>
		<path d="M428.964,150.571c-0.909-4.275-3.951-7.736-6.509-11.16c-1.322-1.769-3.039-3.354-4.899-4.544
			c-1.102-0.704-2.243-1.334-3.341-2.044c-1.176-0.468-1.304,1.307-1.681,1.983c-4.59,6.548-5.991,15.765-7.521,23.43
			c-1.652,8.29-1.952,15.597,4.227,22.136c2.732,2.898,5.899,4.801,9.403,6.622c3.408,1.769,9.234,1.377,10.486,5.064
			c4.073,12.004,4.317-2.09,6.31-5.624c2.47-5.26,4.722-11.148,5.285-16.974c0.275-2.867,0.771-6.35,0.092-9.158
			c-0.579-2.381-1.567-6.282-4.106-7.341c-1.47,0.123-2.06,3.458-2.256,4.468c-0.281,1.441-0.184,5.297-1.839,5.97
			C429.802,165.219,429.261,151.982,428.964,150.571z"/>
		<path d="M151.431,114.546c-1.303,0.07-2.601,0.227-3.904,0.291c-1.227,0.306-0.297,1.824-0.208,2.592
			c0.095,7.996,4.336,16.298,7.57,23.415c3.498,7.696,7.519,13.801,16.353,15.505c3.911,0.756,7.592,0.453,11.5-0.113
			c3.8-0.551,8.302-4.272,11.469-2.007c10.312,7.372,2.286-4.217,1.839-8.25c-1.065-5.713-2.675-11.809-5.618-16.867
			c-1.451-2.488-3.082-5.606-5.272-7.491c-1.861-1.594-4.939-4.186-7.62-3.565c-1.12,0.958,0.346,4.012,0.777,4.945
			c0.615,1.334,2.94,4.407,1.992,5.921c-1.218,3.118-9.382-7.311-10.45-8.284c-3.231-2.94-7.723-3.975-11.799-5.263
			C155.954,114.711,153.634,114.426,151.431,114.546z"/>
		<path d="M182.275,59.102c-1.674-4.036-5.297-6.885-8.436-9.783c-1.622-1.496-3.599-2.745-5.646-3.574
			c-1.212-0.489-2.451-0.902-3.66-1.398c-1.242-0.245-1.043,1.524-1.288,2.258c-3.317,7.277-3.011,16.595-3.115,24.41
			c-0.11,8.455,0.93,15.688,8.198,20.992c3.216,2.347,6.677,3.642,10.456,4.792c3.675,1.117,9.33-0.333,11.233,3.063
			c6.196,11.059,3.861-2.843,5.177-6.683c1.466-5.621,2.607-11.824,2.093-17.653c-0.254-2.871-0.401-6.383-1.585-9.024
			c-1.003-2.237-2.689-5.891-5.376-6.469c-1.423,0.389-1.395,3.776-1.401,4.804c-0.012,1.469,0.787,5.239-0.716,6.206
			C185.776,73.349,182.83,60.436,182.275,59.102z"/>
		<path d="M210.642,17.938c-1.674-4.036-5.297-6.885-8.436-9.783c-1.622-1.496-3.599-2.745-5.646-3.574
			c-1.212-0.489-2.451-0.902-3.66-1.398c-1.242-0.245-1.043,1.524-1.288,2.258c-3.317,7.277-3.011,16.594-3.115,24.41
			c-0.11,8.455,0.93,15.688,8.198,20.992c3.216,2.347,6.677,3.642,10.456,4.792c3.675,1.117,9.33-0.333,11.233,3.063
			c6.196,11.059,3.861-2.843,5.177-6.683c1.469-5.621,2.607-11.824,2.093-17.653c-0.254-2.871-0.401-6.383-1.585-9.024
			c-1.003-2.236-2.689-5.89-5.376-6.469c-1.423,0.389-1.395,3.776-1.401,4.804c-0.012,1.469,0.787,5.239-0.716,6.206
			C214.146,32.186,211.196,19.273,210.642,17.938z"/>
		<path d="M131.366,47.801c-1.674-4.036-5.297-6.885-8.437-9.783c-1.622-1.496-3.598-2.745-5.646-3.574
			c-1.212-0.49-2.451-0.903-3.66-1.398c-1.242-0.245-1.043,1.524-1.288,2.258c-3.317,7.276-3.011,16.594-3.115,24.41
			c-0.11,8.455,0.93,15.688,8.198,20.992c3.216,2.347,6.677,3.641,10.456,4.792c3.675,1.117,9.33-0.333,11.233,3.063
			c6.197,11.059,3.862-2.842,5.178-6.683c1.469-5.622,2.607-11.824,2.093-17.653c-0.254-2.87-0.401-6.383-1.585-9.021
			c-1.003-2.237-2.689-5.89-5.376-6.469c-1.423,0.389-1.395,3.776-1.401,4.804c-0.012,1.469,0.787,5.239-0.716,6.206
			C134.87,62.048,131.92,49.135,131.366,47.801z"/>
		<path d="M347.556,16.078c-0.496-2.151-1.43-4.296-2.653-6.132c-0.726-1.086-1.518-2.126-2.233-3.216
			c-0.888-0.903-1.72,0.67-2.338,1.138c-6.84,4.143-11.837,12.017-16.322,18.415c-4.854,6.922-8.069,13.488-5.052,21.961
			c1.337,3.752,3.467,6.772,5.939,9.847c2.404,2.993,7.897,4.979,7.555,8.859c-1.11,12.625,4.792-0.171,8.042-2.607
			c4.379-3.819,8.812-8.302,11.674-13.406c1.407-2.512,3.265-5.502,3.772-8.348c0.429-2.414,1.096-6.38-0.799-8.375
			c-1.395-0.478-3.28,2.334-3.864,3.182c-0.839,1.206-2.301,4.774-4.088,4.725c-3.305,0.536,1.533-11.796,1.826-13.21
			C349.909,24.637,348.52,20.24,347.556,16.078z"/>
		<path d="M257.273,8.122c-0.979-1.977-2.38-3.85-3.996-5.355c-0.955-0.891-1.968-1.717-2.917-2.613
			c-1.071-0.673-1.521,1.05-2.01,1.646c-5.698,5.609-8.742,14.422-11.634,21.683c-3.124,7.855-4.74,14.985,0.153,22.534
			c2.167,3.342,4.936,5.787,8.051,8.213c3.032,2.356,8.834,3.023,9.397,6.876c1.833,12.543,4.624-1.273,7.221-4.391
			c3.378-4.725,6.659-10.11,8.265-15.741c0.79-2.769,1.906-6.104,1.744-8.993c-0.141-2.448-0.407-6.463-2.711-7.962
			c-1.466-0.144-2.653,3.029-3.026,3.987c-0.536,1.368-1.138,5.174-2.886,5.539c-3.094,1.285-1.233-11.83-1.27-13.274
			C261.536,15.907,259.17,11.95,257.273,8.122z"/>
		<path d="M51.525,259.786c-1.451-2.488-3.082-5.606-5.272-7.491c-1.86-1.594-4.939-4.186-7.62-3.565
			c-1.12,0.958,0.346,4.012,0.777,4.945c0.615,1.334,2.941,4.406,1.992,5.921c-1.218,3.121-9.382-7.311-10.45-8.284
			c-3.231-2.94-7.724-3.975-11.799-5.263c-2.105-0.664-4.425-0.952-6.628-0.829c-1.303,0.07-2.601,0.226-3.904,0.291
			c-1.227,0.306-0.297,1.824-0.208,2.592c0.095,7.996,4.336,16.297,7.57,23.415c3.498,7.695,7.519,13.804,16.353,15.505
			c3.911,0.756,7.592,0.453,11.5-0.113c3.801-0.551,8.302-4.271,11.469-2.008c10.312,7.372,2.286-4.217,1.839-8.249
			C56.078,270.942,54.472,264.847,51.525,259.786z"/>
		<path d="M94.169,91.324c-2.105-0.664-4.425-0.952-6.628-0.83c-1.304,0.07-2.601,0.227-3.905,0.291
			c-1.227,0.306-0.296,1.824-0.205,2.592c0.095,7.996,4.336,16.297,7.57,23.415c3.498,7.696,7.519,13.804,16.353,15.505
			c3.911,0.756,7.592,0.453,11.5-0.113c3.8-0.551,8.302-4.271,11.469-2.007c10.312,7.372,2.286-4.217,1.839-8.25
			c-1.065-5.713-2.675-11.809-5.618-16.867c-1.451-2.488-3.082-5.606-5.272-7.491c-1.86-1.594-4.939-4.186-7.62-3.565
			c-1.12,0.958,0.346,4.012,0.777,4.945c0.615,1.334,2.941,4.406,1.992,5.921c-1.218,3.121-9.382-7.31-10.45-8.283
			C102.734,93.646,98.242,92.609,94.169,91.324z"/>
		<path d="M316.72,98.646c-2.619,0.842-3.936,4.642-4.716,6.965c-0.918,2.742-0.719,6.254-0.688,9.134
			c0.062,5.854,1.806,11.913,3.819,17.362c1.686,3.694,0.729,17.754,5.808,6.142c1.561-3.568,7.332-2.681,10.879-4.152
			c3.647-1.515,6.961-3.143,9.933-5.796c6.71-5.988,7.035-13.292,6.096-21.695c-0.873-7.766-1.484-17.068-5.499-23.984
			c-0.315-0.704-0.294-2.484-1.506-2.12c-1.153,0.612-2.347,1.144-3.504,1.75c-1.955,1.025-3.8,2.46-5.266,4.11
			c-2.84,3.191-6.166,6.383-7.437,10.563c-0.419,1.38-2.087,14.522-4.73,12.466c-1.591-0.814-1.166-4.645-1.322-6.104
			C318.477,102.269,318.173,98.897,316.72,98.646z"/>
		<path d="M221.988,94.148c-0.419,1.38-2.087,14.522-4.731,12.466c-1.591-0.814-1.166-4.645-1.322-6.104
			c-0.11-1.022-0.413-4.397-1.867-4.645c-2.619,0.841-3.935,4.642-4.715,6.964c-0.918,2.742-0.719,6.254-0.688,9.134
			c0.061,5.854,1.805,11.913,3.819,17.362c1.686,3.693,0.729,17.754,5.808,6.142c1.561-3.568,7.332-2.681,10.878-4.153
			c3.647-1.515,6.962-3.143,9.933-5.795c6.71-5.988,7.035-13.292,6.095-21.695c-0.869-7.767-1.484-17.069-5.499-23.984
			c-0.315-0.704-0.294-2.485-1.506-2.121c-1.153,0.612-2.347,1.145-3.503,1.75c-1.956,1.025-3.801,2.46-5.266,4.109
			C226.581,86.776,223.255,89.968,221.988,94.148z"/>
		<path d="M282.207,100.831c1.561-3.568,7.332-2.681,10.878-4.152c3.647-1.515,6.965-3.143,9.933-5.796
			c6.714-5.988,7.038-13.292,6.096-21.695c-0.869-7.766-1.48-17.069-5.499-23.984c-0.314-0.704-0.293-2.485-1.505-2.121
			c-1.153,0.612-2.347,1.145-3.504,1.75c-1.955,1.025-3.801,2.46-5.267,4.109c-2.839,3.192-6.165,6.383-7.436,10.563
			c-0.419,1.38-2.087,14.523-4.73,12.467c-1.592-0.814-1.166-4.645-1.322-6.105c-0.11-1.022-0.413-4.397-1.867-4.645
			c-2.62,0.842-3.936,4.642-4.716,6.965c-0.918,2.742-0.719,6.254-0.688,9.134c0.062,5.854,1.806,11.913,3.819,17.363
			C278.084,98.383,277.126,112.444,282.207,100.831z"/>
		<path d="M428.312,66.345c-0.314-0.704-0.294-2.485-1.505-2.121c-1.154,0.612-2.348,1.145-3.504,1.75
			c-1.955,1.025-3.801,2.46-5.267,4.109c-2.84,3.192-6.166,6.383-7.436,10.563c-0.419,1.38-2.087,14.523-4.73,12.467
			c-1.592-0.814-1.166-4.646-1.322-6.105c-0.11-1.022-0.413-4.397-1.866-4.645c-2.62,0.842-3.936,4.642-4.716,6.965
			c-0.918,2.742-0.719,6.254-0.688,9.134c0.064,5.854,1.806,11.913,3.818,17.362c1.687,3.693,0.729,17.754,5.809,6.142
			c1.561-3.568,7.331-2.681,10.878-4.152c3.647-1.515,6.965-3.143,9.933-5.796c6.714-5.988,7.038-13.292,6.096-21.695
			C432.939,82.563,432.327,73.26,428.312,66.345z"/>
		<path d="M387.127,35.191c-0.314-0.704-0.293-2.485-1.505-2.121c-1.154,0.612-2.348,1.145-3.504,1.75
			c-1.955,1.025-3.801,2.46-5.267,4.109c-2.84,3.191-6.166,6.383-7.436,10.563c-0.419,1.38-2.087,14.523-4.73,12.466
			c-1.592-0.813-1.166-4.645-1.322-6.104c-0.11-1.022-0.413-4.397-1.866-4.645c-2.62,0.841-3.936,4.642-4.716,6.964
			c-0.918,2.742-0.719,6.255-0.688,9.134c0.064,5.854,1.806,11.913,3.819,17.362c1.686,3.694,0.728,17.754,5.808,6.142
			c1.561-3.568,7.331-2.681,10.878-4.152c3.647-1.515,6.965-3.143,9.933-5.796c6.711-5.988,7.038-13.292,6.096-21.695
			C391.757,51.412,391.142,42.106,387.127,35.191z"/>
		<path d="M445.286,231.802c-1.153,0.612-2.347,1.145-3.503,1.75c-1.956,1.025-3.801,2.46-5.267,4.109
			c-2.84,3.192-6.166,6.383-7.436,10.563c-0.419,1.38-2.087,14.522-4.73,12.466c-1.592-0.814-1.166-4.645-1.322-6.104
			c-0.11-1.022-0.413-4.397-1.867-4.645c-2.619,0.841-3.935,4.642-4.715,6.964c-0.918,2.742-0.72,6.254-0.688,9.134
			c0.064,5.854,1.805,11.912,3.818,17.362c1.687,3.693,0.729,17.754,5.809,6.142c1.561-3.568,7.331-2.681,10.878-4.152
			c3.647-1.515,6.961-3.143,9.933-5.796c6.711-5.988,7.038-13.292,6.096-21.695c-0.869-7.767-1.484-17.069-5.499-23.984
			C446.476,233.216,446.498,231.435,445.286,231.802z"/>
		<path d="M456.504,138.251c1.561-3.568,7.331-2.68,10.878-4.152c3.647-1.515,6.962-3.143,9.933-5.795
			c6.711-5.989,7.035-13.292,6.096-21.695c-0.872-7.767-1.484-17.069-5.499-23.984c-0.318-0.704-0.294-2.485-1.505-2.121
			c-1.154,0.612-2.348,1.145-3.504,1.75c-1.956,1.025-3.801,2.46-5.267,4.11c-2.84,3.191-6.166,6.383-7.436,10.563
			c-0.419,1.38-2.087,14.523-4.73,12.467c-1.592-0.814-1.166-4.646-1.322-6.105c-0.107-1.022-0.413-4.397-1.866-4.645
			c-2.62,0.841-3.936,4.642-4.716,6.964c-0.918,2.742-0.719,6.255-0.688,9.134c0.064,5.854,1.806,11.913,3.818,17.362
			C452.382,135.804,451.424,149.864,456.504,138.251z"/>
		<path d="M388.667,123.355c-1.469,0.123-2.059,3.461-2.255,4.468c-0.278,1.441-0.184,5.297-1.836,5.97
			c-2.81,1.824-3.351-11.414-3.65-12.825c-0.909-4.275-3.95-7.739-6.509-11.16c-1.322-1.769-3.039-3.354-4.899-4.544
			c-1.102-0.704-2.246-1.334-3.341-2.044c-1.176-0.468-1.304,1.307-1.681,1.983c-4.59,6.548-5.991,15.765-7.521,23.431
			c-1.652,8.29-1.952,15.597,4.227,22.136c2.735,2.898,5.899,4.801,9.403,6.622c3.408,1.771,9.234,1.377,10.486,5.064
			c4.073,12.004,4.314-2.086,6.31-5.624c2.47-5.26,4.722-11.147,5.282-16.974c0.275-2.867,0.771-6.349,0.092-9.158
			C392.192,128.316,391.204,124.417,388.667,123.355z"/>
		<path d="M544.611,197.401c-1.301-0.131-2.586-0.352-3.887-0.49c-2.193-0.232-4.525-0.064-6.661,0.496
			c-4.134,1.077-8.672,1.885-12.051,4.66c-1.113,0.915-9.798,10.921-10.854,7.745c-0.872-1.558,1.609-4.511,2.289-5.811
			c0.478-0.912,2.096-3.886,1.025-4.899c-2.645-0.756-5.852,1.674-7.791,3.176c-2.286,1.771-4.073,4.801-5.646,7.215
			c-1.555,2.384-2.797,5.034-3.828,7.772c0.073-0.526,0.171-1.059,0.238-1.585c0.101-0.805-0.443-1.549-1.242-1.699
			c-0.783-0.125-1.573,0.355-1.763,1.145c-2.479,10.227-6.224,20.315-11.153,30.04c-1.147-1.848-3.326-3.161-5.444-4.44
			c-1.76-1.065-3.95-2.384-3.98-3.36c-0.01-0.242,0.149-1.16,2.524-2.828c0.64-0.447,0.838-1.31,0.459-1.992
			c-0.38-0.692-1.218-0.979-1.935-0.667c-6.512,2.763-8.867,11.24-7.319,17.503c0.863,3.482,3.378,5.572,5.199,6.845
			c3.042,2.124,3.042,2.124,0.954,5.312c-8.038,12.265-18.277,24.186-30.425,35.435c-11.595,10.74-24.095,19.482-37.213,27.604
			c0.062-0.145,0.119-0.304,0.184-0.423c2.384-5.3,4.538-11.224,5.006-17.06c0.229-2.87,0.667-6.361-0.058-9.158
			c-0.618-2.372-1.671-6.255-4.227-7.273c-1.465,0.146-2.004,3.491-2.182,4.504c-0.257,1.447-0.098,5.297-1.737,6.001
			c-2.779,1.869-3.538-11.358-3.859-12.764c-0.976-4.259-4.075-7.671-6.688-11.052c-1.35-1.748-3.091-3.305-4.973-4.465
			c-1.111-0.686-2.265-1.297-3.375-1.989c-1.185-0.447-1.282,1.328-1.646,2.01c-4.483,6.621-5.734,15.859-7.139,23.549
			c-1.519,8.317-1.695,15.625,4.587,22.063c2.781,2.852,5.976,4.703,9.51,6.466c2.999,1.496,7.807,1.315,9.856,3.681
			c-6.634,3.953-13.394,7.821-20.288,11.741c-2.674,1.518-5.354,3.042-8.032,4.578c-0.483-2.715-1.701-5.232-2.889-7.687
			c-1.521-3.144-2.956-6.111-2.695-9.135c0.211-2.265,3.093-2.741,5.474-2.741c1.536,0,2.904,0.205,3.58,0.327
			c0.759,0.135,1.519-0.321,1.738-1.071c0.224-0.746-0.149-1.542-0.869-1.845c-1.817-0.771-3.775-1.255-5.813-1.438
			c-8.626-0.813-17.464,4.462-22.332,12.989c-3.653,6.166-2.213,10.952-0.817,15.582c0.661,2.191,1.344,4.455,1.573,6.998
			c0.312,3.421-1.763,5.043-5.165,7.411c-0.833,0.575-1.674,1.166-2.479,1.8c-3.611,2.857-7.151,5.811-10.521,8.785
			c-2.938,2.592-5.753,5.227-8.467,7.883c0.03-0.609,0.076-1.222,0.055-1.824c-0.067-1.854-0.046-4.122-0.716-5.856
			c-0.572-1.472-1.533-3.88-3.244-4.343c-0.927,0.202-1.021,2.384-1.062,3.045c-0.059,0.945,0.33,3.396-0.67,3.969
			c-1.641,1.401-3.106-7.007-3.415-7.883c-0.942-2.652-3.177-4.607-5.102-6.575c-0.994-1.02-2.225-1.886-3.513-2.488
			c-0.762-0.354-1.545-0.661-2.307-1.021c-0.79-0.199-0.723,0.945-0.906,1.407c-2.378,4.571-2.494,10.575-2.821,15.6
			c-0.354,5.435,0.073,10.126,4.571,13.779c1.992,1.619,4.174,2.567,6.567,3.434c0.486,0.178,1.04,0.275,1.609,0.354
			c-11.919,13.739-21.609,28.69-28.834,44.585c1.31-34.924,6.098-64.38,14.59-89.777c10.055,4.442,18.718,3.519,27.61-2.898
			c7.77-5.6,15.184-15.74,12.692-27.399c-0.155-0.734-0.816-1.264-1.579-1.208c-0.752,0.039-1.361,0.621-1.438,1.37
			c-0.86,8.44-3.149,11.852-7.381,10.744c-3.066-0.793-5.766-2.54-8.62-4.392c-2.298-1.49-4.66-3.02-7.292-4.066
			c9.722-14.449,22.2-28.032,37.121-40.401c12.301-10.192,25.435-18.004,39.336-26.272c2.812-1.674,5.634-3.354,8.455-5.055
			c9.395-5.673,17.494-11.099,24.762-16.573c3.613-2.724,7.179-5.572,10.59-8.473c0.572-0.483,1.105-0.985,1.628-1.475
			c2.308-2.169,3.669-3.231,6.071-2.491c1.604,0.496,2.996,1.398,4.471,2.356c2.133,1.383,4.342,2.815,7.411,3.124
			c3.725,0.245,7.491-0.615,11.31-2.521c5.919-2.947,14.101-10.367,12.391-18.715c-0.145-0.704-0.762-1.212-1.481-1.221
			c-0.006,0-0.012,0-0.019,0c-0.713,0-1.334,0.493-1.49,1.19c-0.36,1.576-1.75,6.71-4.51,6.71c-0.769,0-1.668-0.37-2.678-1.095
			c-0.33-0.236-0.851-0.686-1.503-1.236c-3.06-2.601-6.229-5.156-9.048-6.126c13.247-13.654,24.115-30.863,31.212-48.844
			c0.621,0.26,2.068-0.26,4.914-2.084c3.28-2.102,7.586,1.842,11.353,2.586c3.874,0.765,7.537,1.251,11.481,0.694
			c8.907-1.254,13.231-7.151,17.114-14.66c3.587-6.943,8.244-15.022,8.743-23.002c0.128-0.762,1.135-2.228-0.077-2.598
			c-1.3-0.132-2.586-0.352-3.886-0.49c-2.194-0.232-4.526-0.064-6.662,0.496c-4.134,1.077-8.672,1.885-12.05,4.661
			c-1.114,0.915-9.799,10.921-10.854,7.745c-0.872-1.558,1.61-4.51,2.289-5.811c0.478-0.912,2.097-3.886,1.025-4.899
			c-2.644-0.756-5.851,1.677-7.791,3.176c-2.285,1.772-4.072,4.801-5.646,7.216c-1.726,2.647-3.057,5.624-4.149,8.684
			c1.053-4.357,1.892-8.709,2.436-13.011c0.102-0.805-0.443-1.548-1.242-1.698c-0.796-0.128-1.573,0.358-1.763,1.145
			c-2.476,10.224-6.221,20.312-11.15,30.04c-1.147-1.845-3.326-3.161-5.443-4.437c-1.76-1.065-3.951-2.384-3.984-3.36
			c-0.006-0.242,0.149-1.16,2.524-2.828c0.64-0.447,0.839-1.31,0.459-1.992c-0.383-0.691-1.218-0.976-1.934-0.667
			c-6.509,2.763-8.868,11.24-7.32,17.503c0.863,3.482,3.379,5.572,5.199,6.845c3.042,2.121,3.042,2.121,0.955,5.309
			c-8.036,12.258-18.271,24.177-30.426,35.438c-12.438,11.521-25.912,20.75-40.08,29.37c0.129-0.379,0.264-0.728,0.41-1.003
			c2.384-5.3,4.538-11.224,5.006-17.06c0.229-2.87,0.667-6.362-0.058-9.162c-0.618-2.372-1.671-6.255-4.226-7.274
			c-1.466,0.147-2.005,3.492-2.183,4.504c-0.257,1.448-0.098,5.297-1.737,6.001c-2.778,1.87-3.538-11.359-3.859-12.763
			c-0.976-4.26-4.075-7.672-6.688-11.053c-1.35-1.748-3.091-3.305-4.973-4.465c-1.111-0.686-2.265-1.297-3.375-1.989
			c-1.185-0.447-1.282,1.328-1.646,2.01c-4.483,6.622-5.734,15.863-7.139,23.55c-1.519,8.317-1.695,15.625,4.587,22.062
			c2.781,2.852,5.976,4.703,9.51,6.466c3.104,1.548,8.118,1.328,10.034,3.969c-5.832,3.439-11.769,6.821-17.797,10.248
			c-2.684,1.527-5.37,3.054-8.061,4.596c-0.483-2.714-1.701-5.236-2.889-7.69c-1.521-3.143-2.956-6.108-2.695-9.131
			c0.211-2.265,3.094-2.742,5.475-2.742c1.536,0,2.903,0.205,3.58,0.327c0.762,0.132,1.515-0.318,1.737-1.068
			c0.224-0.747-0.149-1.542-0.865-1.848c-1.814-0.774-3.776-1.258-5.814-1.438c-8.645-0.823-17.466,4.461-22.332,12.987
			c-3.656,6.166-2.212,10.952-0.816,15.584c0.661,2.191,1.343,4.456,1.572,6.995c0.312,3.424-1.763,5.046-5.168,7.415
			c-0.829,0.575-1.674,1.166-2.479,1.799c-1.928,1.527-3.819,3.072-5.674,4.626c-0.049-1.585-0.144-3.304-0.679-4.693
			c-0.572-1.472-1.533-3.88-3.244-4.342c-0.927,0.202-1.021,2.384-1.062,3.045c-0.058,0.945,0.331,3.396-0.67,3.968
			c-1.641,1.401-3.106-7.007-3.415-7.882c-0.942-2.653-3.18-4.608-5.102-6.576c-0.994-1.019-2.225-1.885-3.513-2.488
			c-0.762-0.355-1.545-0.661-2.307-1.022c-0.79-0.199-0.723,0.945-0.906,1.408c-2.378,4.571-2.494,10.575-2.821,15.6
			c-0.354,5.434,0.073,10.125,4.572,13.779c1.386,1.126,2.87,1.919,4.449,2.595c-2.901,2.889-5.671,5.802-8.271,8.728
			c-5.79,6.542-11.037,13.384-15.771,20.459c-0.581-1.182-1.38-2.347-2.519-2.653c-0.927,0.202-1.021,2.384-1.062,3.045
			c-0.059,0.945,0.33,3.396-0.667,3.969c-1.641,1.401-3.106-7.008-3.415-7.883c-0.942-2.652-3.177-4.608-5.101-6.575
			c-0.996-1.02-2.225-1.886-3.514-2.488c-0.762-0.354-1.545-0.661-2.307-1.022c-0.79-0.198-0.723,0.946-0.906,1.408
			c-2.377,4.571-2.494,10.575-2.821,15.6c-0.354,5.435,0.074,10.126,4.572,13.779c1.809,1.472,3.786,2.381,5.925,3.186
			c-8.875,17.904-14.579,36.962-16.797,56.561c-0.921,8.155-1.408,16.374-1.457,24.526c-0.336-0.802-0.67-1.601-1.007-2.402
			c-9.939-23.804-16.013-44.667-18.562-63.538c0.058-2.655,0.067-5.306,0-7.946c-0.003-0.089-0.006-0.181-0.009-0.27
			c7.191-0.281,12.344-3.399,16.16-9.752c3.562-5.934,5.587-14.789,0.59-21.852c-0.438-0.612-1.251-0.826-1.928-0.486
			c-0.676,0.333-1.007,1.107-0.78,1.83c1.129,3.607,1.297,6.086,0.499,7.371c-0.239,0.38-0.695,0.906-1.94,1.096
			c-2.182,0.336-4.346-0.049-6.683-0.447c-1.75-0.3-3.562-0.608-5.413-0.621c1.9-9.798,5.159-19.728,9.675-29.627
			c0.361-0.214,0.698-0.407,1.117-0.676c3.28-2.103,7.585,1.842,11.353,2.586c3.874,0.765,7.537,1.251,11.481,0.694
			c8.908-1.255,13.232-7.151,17.115-14.66c3.586-6.943,8.243-15.021,8.742-23.002c0.129-0.762,1.136-2.231-0.076-2.598
			c-1.301-0.131-2.586-0.352-3.887-0.489c-2.193-0.233-4.525-0.064-6.661,0.496c-4.134,1.077-8.672,1.885-12.051,4.66
			c-1.114,0.915-9.798,10.921-10.854,7.745c-0.425-0.762-0.049-1.854,0.526-2.925c1.459-2.041,2.941-4.085,4.449-6.157
			c1.365-1.876,2.732-3.761,4.095-5.655c4.526-6.31,8.29-12.105,11.505-17.723c1.601-2.8,3.125-5.658,4.535-8.485
			c0.239-0.478,0.447-0.958,0.652-1.429c0.868-1.995,1.321-2.882,2.892-3.051c1.135-0.125,2.239,0.073,3.442,0.278
			c1.882,0.321,3.947,0.569,5.921-0.055c2.533-0.902,4.835-2.561,6.839-4.926c3.115-3.672,6.447-11.013,2.864-16.166
			c-0.416-0.591-1.188-0.817-1.845-0.542c-0.664,0.278-1.047,0.979-0.918,1.689c0.4,2.209,0.26,4.051-0.367,4.804
			c-0.248,0.297-0.922,0.621-2.204,0.331c-0.275-0.062-0.725-0.202-1.288-0.376c-1.9-0.584-4.752-1.466-7.065-1.493
			c1.255-3.357,2.265-6.854,3.161-10.395c0.753-0.349,1.677-0.863,2.876-1.631c3.281-2.102,7.586,1.842,11.354,2.585
			c3.873,0.765,7.536,1.251,11.48,0.695c8.908-1.255,13.231-7.151,17.115-14.661c3.586-6.943,8.243-15.021,8.742-23.002
			c0.128-0.762,1.135-2.23-0.077-2.598c-1.3-0.132-2.585-0.352-3.886-0.49c-2.194-0.233-4.525-0.064-6.662,0.496
			c-4.134,1.077-8.672,1.885-12.05,4.66c-1.114,0.915-9.798,10.921-10.854,7.745c-0.872-1.558,1.609-4.51,2.288-5.811
			c0.478-0.912,2.097-3.886,1.025-4.899c-2.644-0.756-5.851,1.674-7.791,3.176c-2.285,1.772-4.072,4.801-5.646,7.215
			c-2.371,3.635-4.029,7.879-5.284,12.133c1.463-13.051,0.624-26.331-2.721-37.99c-0.224-0.783-1.025-1.258-1.809-1.071
			c-0.015,0.003-0.024,0.012-0.036,0.015c-1.065-5.245-2.61-10.692-5.288-15.288c-1.45-2.488-3.081-5.606-5.272-7.491
			c-1.86-1.594-4.941-4.186-7.619-3.564c-1.12,0.958,0.346,4.011,0.777,4.945c0.615,1.334,2.94,4.406,1.992,5.921
			c-1.218,3.118-9.382-7.31-10.451-8.283c-3.231-2.941-7.724-3.975-11.799-5.263c-2.105-0.664-4.425-0.952-6.628-0.83
			c-1.304,0.071-2.601,0.227-3.905,0.291c-1.227,0.306-0.297,1.824-0.208,2.592c0.095,7.996,4.336,16.297,7.57,23.415
			c3.498,7.696,7.519,13.8,16.353,15.505c3.911,0.756,7.592,0.453,11.5-0.113c3.801-0.551,8.302-4.271,11.469-2.007
			c0.532,0.379,0.988,0.68,1.426,0.964c0.3,4.202,0.361,8.458,0.119,12.754c-1.278-0.64-2.87-0.857-4.314-1.062
			c-0.896-0.123-2.992-0.416-3.183-0.817c0-0.006-0.162-0.514,0.83-2.118c0.413-0.664,0.254-1.533-0.364-2.013
			c-0.621-0.48-1.503-0.419-2.041,0.153c-3.626,3.785-2.775,10.214,0.092,14c1.625,2.145,3.95,2.836,5.554,3.167
			c0.64,0.135,1.836,0.382,1.995,0.45c0.095,0.312-0.135,1.601-0.245,2.225c-1.799,10.175-5.119,20.747-9.868,31.426
			c-1.102,2.479-2.292,4.884-3.52,7.255c2.286-5.159,4.318-10.863,4.768-16.5c0.229-2.87,0.667-6.362-0.058-9.159
			c-0.618-2.372-1.671-6.254-4.226-7.273c-1.466,0.147-2.005,3.491-2.183,4.504c-0.257,1.447-0.098,5.297-1.741,6
			c-2.778,1.87-3.537-11.359-3.858-12.763c-0.976-4.26-4.077-7.671-6.689-11.053c-1.35-1.747-3.091-3.305-4.973-4.464
			c-1.111-0.686-2.264-1.298-3.375-1.989c-1.184-0.447-1.282,1.328-1.646,2.01c-4.483,6.622-5.734,15.863-7.139,23.55
			c-1.518,8.317-1.695,15.625,4.587,22.063c2.781,2.852,5.976,4.703,9.51,6.465c3.437,1.714,9.257,1.224,10.567,4.893
			c0.462,1.292,0.863,2.225,1.233,2.953c-6.207,10.199-13.385,19.712-20.858,29.572c-1.193,1.576-2.387,3.152-3.58,4.734
			c-1.059-1.438-2.417-2.613-3.746-3.767c-1.817-1.576-3.531-3.066-4.167-4.985c-0.123-0.376-0.095-0.67,0.085-0.988
			c0.643-1.132,2.876-2.09,4.804-2.531c0.759-0.174,1.267-0.89,1.175-1.665c-0.089-0.774-0.744-1.355-1.521-1.355h-0.003
			c-1.438,0.003-2.895,0.242-4.321,0.707c-6.805,2.185-10.533,9.14-11.206,15.046c-0.683,5.224,1.655,8.008,3.917,10.704
			c1.025,1.22,2.087,2.484,2.926,4.033c1.04,1.928,0.235,3.387-1.276,5.811c-0.385,0.615-0.774,1.239-1.123,1.885
			c-1.561,2.877-3.042,5.796-4.4,8.669c-2.167,4.572-4.073,9.131-5.686,13.599c-4.26-11.523-10.26-22.543-17.88-32.824
			c-3.442-4.626-7.384-9.271-11.705-13.812c-0.042-0.046-0.088-0.089-0.131-0.135c3.244-1.716,7.405,1.983,11.065,2.702
			c3.874,0.765,7.537,1.251,11.481,0.695c8.908-1.255,13.231-7.151,17.115-14.661c3.586-6.943,8.244-15.021,8.743-23.002
			c0.128-0.762,1.135-2.231-0.077-2.598c-1.301-0.131-2.586-0.352-3.886-0.489c-2.194-0.233-4.526-0.064-6.662,0.496
			c-4.134,1.077-8.672,1.885-12.05,4.66c-1.114,0.915-9.798,10.921-10.854,7.745c-0.872-1.558,1.61-4.511,2.289-5.811
			c0.478-0.912,2.096-3.886,1.025-4.899c-2.644-0.756-5.851,1.674-7.791,3.176c-2.286,1.771-4.073,4.801-5.646,7.215
			c-3.197,4.902-5.11,10.909-6.462,16.561c-0.184,1.142-1.016,2.864-1.86,4.584c-1.05-1.037-2.112-2.072-3.189-3.087
			c-0.535-0.505-1.098-0.976-1.658-1.441c-2.197-1.827-3.421-2.965-3.036-5.119c0.312-1.732,0.921-3.265,1.515-4.75
			c1.304-3.268,2.653-6.649,0.379-11.371c-1.949-4.229-5.894-8.446-10.982-10.071c0.429-0.719,0.848-1.457,1.252-2.237
			c2.31-4.474,5.309-9.676,5.633-14.819c0.083-0.49,0.731-1.435-0.049-1.674c-0.838-0.083-1.668-0.227-2.503-0.315
			c-1.414-0.15-2.916-0.04-4.293,0.318c-2.662,0.695-5.587,1.215-7.763,3.002c-0.719,0.59-6.313,7.035-6.992,4.988
			c-0.56-1.004,1.037-2.907,1.475-3.746c0.306-0.587,1.349-2.503,0.661-3.155c-1.704-0.486-3.77,1.08-5.018,2.044
			c-1.472,1.142-2.623,3.094-3.635,4.648c-2.06,3.158-3.293,7.029-4.165,10.67c-0.098,0.606-0.48,1.466-0.915,2.369
			c-8.932-6.472-17.405-13.25-25.153-21.23c2.806,0.184,5.995,2.598,8.871,3.164c3.874,0.765,7.537,1.251,11.481,0.695
			c8.908-1.255,13.231-7.151,17.115-14.661c3.586-6.943,8.243-15.021,8.742-23.002c0.128-0.762,1.135-2.23-0.077-2.598
			c-1.3-0.132-2.585-0.352-3.886-0.49c-2.194-0.233-4.525-0.064-6.662,0.496c-4.134,1.077-8.672,1.885-12.05,4.66
			c-1.114,0.915-9.798,10.921-10.854,7.745c-0.872-1.558,1.609-4.51,2.289-5.811c0.478-0.912,2.096-3.886,1.025-4.899
			c-2.644-0.756-5.851,1.674-7.791,3.176c-2.286,1.771-4.073,4.801-5.646,7.215c-3.198,4.902-5.11,10.909-6.463,16.561
			c-0.11,0.676-0.456,1.566-0.887,2.534c-7.047-8.039-12.956-16.337-17.473-24.734c-0.297-0.557-0.918-1.713-0.967-1.897
			c0.174-0.257,1.227-0.863,1.796-1.193c1.423-0.823,3.415-2.207,4.284-4.749c1.536-4.496,0.331-10.866-4.299-13.323
			c-0.691-0.371-1.551-0.156-1.986,0.496c-0.438,0.648-0.315,1.524,0.285,2.025c1.444,1.212,1.45,1.745,1.45,1.75
			c-0.055,0.441-1.955,1.374-2.766,1.772c-1.297,0.636-2.724,1.337-3.758,2.377c-2.727-6.918-4.651-14.002-5.731-21.105
			c-0.119-0.802-0.82-1.322-1.658-1.294c-0.808,0.076-1.414,0.774-1.383,1.585c0.027,0.734,0.089,1.475,0.138,2.215
			c-0.719-1.879-1.512-3.718-2.5-5.417c-1.451-2.487-3.082-5.605-5.272-7.491c-1.86-1.594-4.939-4.186-7.619-3.565
			c-1.12,0.958,0.346,4.012,0.777,4.945c0.615,1.334,2.941,4.406,1.992,5.921c-1.218,3.118-9.382-7.311-10.45-8.283
			c-3.231-2.941-7.724-3.975-11.799-5.264c-2.105-0.664-4.425-0.951-6.628-0.829c-1.304,0.07-2.601,0.227-3.905,0.291
			c-1.227,0.306-0.297,1.824-0.208,2.592c0.095,7.996,4.336,16.297,7.57,23.415c3.498,7.696,7.519,13.804,16.353,15.505
			c3.911,0.756,7.592,0.453,11.5-0.113c3.801-0.551,8.302-4.271,11.469-2.007c1.166,0.833,2.069,1.393,2.8,1.781
			c3.886,12.592,10.239,24.851,18.354,34.967c-1.967,0.67-4.143,2.139-6.249,3.635c-0.477,0.34-0.859,0.615-1.102,0.759
			c-0.605,0.361-1.147,0.554-1.573,0.554c-1.353,0-2.179-2.494-2.476-4.63c-0.098-0.713-0.682-1.261-1.398-1.319
			c-0.744-0.046-1.377,0.401-1.582,1.089c-1.79,6.022,3.669,11.946,7.779,14.464c2.65,1.622,5.355,2.476,8.097,2.537
			c2.252-0.031,4.021-0.97,5.582-1.802c1.071-0.569,2.081-1.102,3.179-1.34c1.53-0.325,2.243,0.361,3.7,1.989
			c0.339,0.383,0.691,0.774,1.071,1.154c2.28,2.301,4.621,4.532,6.965,6.64c4.804,4.321,10.196,8.647,16.475,13.231
			c1.882,1.371,3.764,2.727,5.643,4.076c9.281,6.677,18.044,12.978,26.068,20.894c9.581,9.461,17.427,19.605,23.342,30.177
			c-1.75,0.587-3.366,1.447-4.942,2.282c-2.093,1.111-4.07,2.161-6.209,2.519c-0.245,0.043-0.474,0.064-0.694,0.064
			c0,0-0.003,0-0.006,0c-0.802,0-3.21-0.024-3.323-7.653c-0.012-0.753-0.569-1.383-1.315-1.49c-0.759-0.101-1.46,0.346-1.677,1.068
			c-2.534,8.271,2.164,16.043,7.402,20.563c5.866,5.058,11.971,6.318,19.253,3.978c4.639,19.522,6.038,41.261,4.376,68.018
			c-1.854-1.674-3.62-3.219-5.343-4.673c-3.455-2.916-7.06-5.795-10.71-8.553c-0.817-0.618-1.674-1.189-2.516-1.747
			c-3.458-2.292-5.563-3.871-5.327-7.301c0.174-2.546,0.808-4.826,1.42-7.032c1.294-4.657,2.634-9.477-1.142-15.535
			c-5.04-8.409-14.085-13.495-22.61-12.528c-2.044,0.227-3.993,0.753-5.792,1.564c-0.71,0.317-1.068,1.123-0.829,1.863
			c0.242,0.743,1,1.193,1.762,1.031c0.753-0.153,2.261-0.41,3.932-0.41c3.234,0,4.976,0.881,5.175,2.613
			c0.324,3.029-1.043,6.028-2.497,9.204c-1.135,2.479-2.298,5.024-2.721,7.742c-2.714-1.475-5.428-2.94-8.136-4.403
			c-14.042-7.586-27.604-14.939-40.484-23.379c2.815,0.169,6.016,2.596,8.901,3.164c3.874,0.766,7.537,1.252,11.481,0.695
			c8.908-1.255,13.231-7.151,17.114-14.661c3.586-6.942,8.244-15.021,8.743-23.002c0.128-0.762,1.135-2.228-0.077-2.598
			c-1.3-0.132-2.585-0.352-3.886-0.489c-2.194-0.233-4.525-0.064-6.662,0.495c-4.134,1.077-8.672,1.885-12.05,4.66
			c-1.114,0.915-9.798,10.922-10.854,7.745c-0.872-1.558,1.609-4.511,2.289-5.811c0.478-0.912,2.096-3.887,1.025-4.899
			c-2.644-0.756-5.851,1.677-7.791,3.177c-2.286,1.771-4.073,4.801-5.646,7.215c-3.198,4.902-5.11,10.909-6.463,16.562
			c-0.165,1.021-0.848,2.509-1.594,4.042c-6.606-4.578-13.036-9.468-19.214-14.942c-12.39-10.991-22.882-22.689-31.181-34.77
			c-2.157-3.14-2.157-3.14,0.838-5.333c1.79-1.31,4.266-3.452,5.049-6.953c1.414-6.297-1.126-14.715-7.696-17.341
			c-0.725-0.297-1.558,0.015-1.921,0.704c-0.364,0.695-0.147,1.552,0.501,1.983c2.412,1.616,2.589,2.531,2.586,2.775
			c-0.012,0.97-2.173,2.341-3.911,3.439c-2.065,1.31-4.192,2.656-5.333,4.584c-3.204-5.995-5.891-12.151-8.161-18.394
			c0.168-0.521,0.346-0.995,0.542-1.347c2.469-5.26,4.722-11.147,5.285-16.974c0.275-2.867,0.771-6.35,0.092-9.159
			c-0.578-2.38-1.57-6.282-4.106-7.341c-1.469,0.123-2.06,3.458-2.255,4.468c-0.278,1.441-0.184,5.297-1.836,5.97
			c-2.809,1.824-3.351-11.414-3.65-12.824c-0.909-4.275-3.951-7.739-6.509-11.16c-1.322-1.769-3.039-3.354-4.899-4.544
			c-1.102-0.704-2.243-1.334-3.342-2.044c-1.175-0.468-1.303,1.307-1.68,1.983c-4.59,6.548-5.992,15.765-7.521,23.43
			c-1.652,8.29-1.952,15.597,4.226,22.136c2.733,2.895,5.9,4.801,9.403,6.622c3.409,1.769,9.235,1.377,10.487,5.064
			c1.763,5.199,2.809,5.496,3.589,3.88c7.001,22.142,20.125,43.928,36.717,60.306c-2.797,1.034-5.912,3.653-8.917,6.324
			c-0.637,0.566-1.145,1.022-1.469,1.268c-1.013,0.765-1.922,1.15-2.702,1.15c-2.729,0-4.214-5.062-4.602-6.613
			c-0.178-0.697-0.695-1.156-1.533-1.156c-0.719,0.024-1.325,0.548-1.454,1.255c-1.53,8.381,6.812,15.621,12.791,18.442
			c3.298,1.558,6.579,2.347,9.752,2.347c0.536,0,1.071-0.021,1.665-0.073c3.008-0.37,5.184-1.848,7.289-3.28
			c1.454-0.985,2.824-1.919,4.418-2.448c2.482-0.829,4.018,0.466,6.123,2.359c0.53,0.478,1.077,0.967,1.659,1.441
			c3.51,2.849,7.136,5.621,10.774,8.234c4.522,3.259,9.406,6.49,14.651,9.759c-3.299-0.836-6.668-1.417-9.976-1.43
			c-2.879-0.012-6.393-0.187-9.131,0.747c-2.319,0.796-6.111,2.136-6.937,4.758c0.257,1.451,3.632,1.735,4.657,1.84
			c1.463,0.146,5.291-0.3,6.114,1.285c2.071,2.631-11.059,4.379-12.439,4.807c-4.174,1.295-7.344,4.643-10.517,7.5
			c-1.64,1.479-3.063,3.333-4.076,5.294c-0.6,1.16-1.123,2.356-1.729,3.513c-0.358,1.215,1.423,1.182,2.13,1.49
			c6.94,3.973,16.249,4.526,24.018,5.35c8.406,0.887,15.71,0.517,21.655-6.23c2.635-2.986,4.241-6.312,5.735-9.97
			c1.45-3.553,0.529-9.312,4.079-10.899c1.824,1.037,3.651,2.081,5.468,3.112c13.357,7.558,26.001,14.743,37.95,23.932
			c-4.07-1.202-8.314-2.084-12.46-2.102c-2.879-0.013-6.392-0.188-9.131,0.746c-2.319,0.796-6.111,2.136-6.937,4.759
			c0.257,1.45,3.632,1.734,4.657,1.839c1.463,0.146,5.291-0.3,6.114,1.285c2.072,2.632-11.059,4.379-12.438,4.808
			c-4.174,1.294-7.344,4.642-10.518,7.5c-1.64,1.478-3.063,3.332-4.076,5.293c-0.6,1.16-1.123,2.356-1.729,3.514
			c-0.358,1.215,1.423,1.181,2.13,1.49c6.94,3.972,16.249,4.525,24.018,5.349c8.406,0.888,15.71,0.517,21.655-6.23
			c2.635-2.986,4.241-6.312,5.734-9.97c1.264-3.1,0.729-7.87,2.926-10.095c11.692,10.224,21.763,21.233,29.966,32.877
			c-2.61,1.102-4.939,2.684-7.203,4.223c-2.815,1.913-5.475,3.718-8.522,4.575c-4.217,1.187-6.57-2.158-7.61-10.582
			c-0.092-0.746-0.713-1.315-1.466-1.34c-0.833,0.024-1.411,0.505-1.555,1.242c-2.237,11.711,5.395,21.689,13.284,27.121
			c9.033,6.218,17.705,6.955,27.659,2.301c12.062,34.691,17.305,108.452,17.326,109.126c0.025,0.819,0.692,1.475,1.512,1.483
			l17.09,0.199c0.007,0,0.013,0,0.019,0c0.398,0,0.783-0.159,1.071-0.44c0.291-0.284,0.456-0.677,0.459-1.08
			c0.006-0.674,3.782-75.114,14.967-109.714c10.049,4.443,18.708,3.517,27.601-2.9c7.77-5.6,15.184-15.74,12.693-27.399
			c-0.156-0.734-0.842-1.267-1.579-1.209c-0.753,0.04-1.361,0.622-1.438,1.371c-0.859,8.439-3.154,11.846-7.381,10.744
			c-3.065-0.79-5.762-2.537-8.616-4.389c-2.299-1.49-4.664-3.02-7.296-4.066c9.719-14.449,22.2-28.032,37.121-40.404
			c2.23-1.849,4.495-3.596,6.778-5.303c2.473,1.833,2.87,6.506,4.669,9.269c2.154,3.311,4.357,6.276,7.507,8.712
			c7.111,5.511,14.351,4.501,22.441,2.047c7.479-2.271,16.515-4.562,22.586-9.771c0.637-0.44,2.39-0.74,1.812-1.866
			c-0.813-1.022-1.551-2.1-2.359-3.128c-1.364-1.734-3.111-3.289-5-4.431c-3.656-2.212-7.398-4.902-11.741-5.389
			c-1.435-0.159-14.66,0.591-13.121-2.384c0.511-1.71,4.354-1.992,5.762-2.411c0.985-0.294,4.248-1.206,4.227-2.681
			c-1.304-2.424-5.282-3.026-7.709-3.369c-2.071-0.29-4.431,0.067-6.652,0.499c3.336-2.025,6.717-4.039,10.145-6.077
			c2.809-1.674,5.627-3.348,8.445-5.049c9.379-5.664,17.479-11.087,24.765-16.573c3.614-2.727,7.179-5.575,10.594-8.473
			c0.569-0.48,1.104-0.982,1.625-1.473c2.311-2.169,3.675-3.23,6.071-2.493c1.6,0.495,2.992,1.398,4.464,2.353
			c2.136,1.387,4.346,2.818,7.418,3.128c3.732,0.248,7.497-0.615,11.31-2.521c5.918-2.95,14.101-10.367,12.39-18.712
			c-0.144-0.704-0.762-1.212-1.48-1.222c-0.007,0-0.013,0-0.019,0c-0.713,0-1.334,0.493-1.49,1.19
			c-0.361,1.576-1.751,6.708-4.511,6.708c-0.768,0-1.671-0.367-2.678-1.09c-0.33-0.238-0.848-0.686-1.496-1.232
			c-3.06-2.607-6.233-5.162-9.055-6.133c15.909-16.398,28.388-37.922,35.019-59.755c0.766-0.349,1.732-0.884,2.984-1.686
			c3.28-2.103,7.585,1.842,11.353,2.585c3.874,0.765,7.536,1.251,11.48,0.695c8.908-1.255,13.231-7.151,17.115-14.661
			c3.586-6.943,8.243-15.021,8.742-23.002C544.816,199.237,545.823,197.769,544.611,197.401z M178.775,234.008
			c-0.899,1.508-1.821,3.054-2.375,4.752c-1.631-1.132-3.265-2.258-4.893-3.381c-3.595-2.479-7.136-4.926-10.621-7.396
			c1.744,0.236,3.693,1.662,5.459,2.011c2.497,0.493,4.856,0.805,7.396,0.447c2.993-0.422,5.171-1.668,6.937-3.439
			c0.297,0.248,0.493,0.557,0.496,0.958C181.174,229.987,180.008,231.94,178.775,234.008z"/>
		<path d="M507.87,186.428c2.903-1.698,4.699-4.764,6.582-7.463c0.973-1.395,1.717-3.036,2.136-4.682
			c0.248-0.976,0.432-1.964,0.686-2.938c0.055-0.973-1.273-0.637-1.857-0.747c-5.9-1.769-12.98-0.56-18.954,0.18
			c-6.463,0.802-11.876,2.353-15.159,8.455c-1.453,2.702-2.081,5.477-2.562,8.479c-0.468,2.919,1.233,7.084-1.162,8.893
			c-7.788,5.887,2.573,2.65,5.643,3.25c4.442,0.529,9.293,0.75,13.69-0.251c2.163-0.493,4.828-0.976,6.72-2.154
			c1.6-1,4.21-2.668,4.372-4.783c-0.446-1.043-3.029-0.667-3.812-0.566c-1.123,0.144-3.917,1.15-4.811,0.104
			C497.364,190.593,506.909,186.988,507.87,186.428z"/>
	</g>
</g>
<g>
</g>
<g>
</g>
<g>
</g>
<g>
</g>
<g>
</g>
<g>
</g>
<g>
</g>
<g>
</g>
<g>
</g>
<g>
</g>
<g>
</g>
<g>
</g>
<g>
</g>
<g>
</g>
<g>
</g>
</svg>
