<?xml version="1.0" encoding="iso-8859-1"?>
<!-- Generator: Adobe Illustrator 19.0.0, SVG Export Plug-In . SVG Version: 6.00 Build 0)  -->
<svg version="1.1" id="Capa_1" xmlns="http://www.w3.org/2000/svg" xmlns:xlink="http://www.w3.org/1999/xlink" x="0px" y="0px"
	 viewBox="0 0 512 512" style="enable-background:new 0 0 512 512;" xml:space="preserve">
<path style="fill:#C27B48;" d="M381.35,156.407l-22.97-19.387l11.485,9.694l-11.528-9.642c1.317-1.59,31.934-39.371,4.145-76.666
	l24.103-17.959c17.524,23.519,22.114,50.837,13.274,79.001C393.53,141.612,382.577,154.952,381.35,156.407z"/>
<path style="fill:#FFB13B;" d="M419.111,248.436c0,40.147-13.376,80.615-39.035,113.328c-18.957,24.157-43.524,46.279-71.047,63.963
	c-27.062,17.393-56.409,30.158-84.873,36.921c-19.518,4.629-39.145,6.903-58.372,6.903c-39.446,0-77.189-9.548-108.89-27.824
	c-8.186-4.709-15.961-9.999-23.255-15.851C11.566,408.174-7.992,378.827,3.3,349.541C8.199,336.816,17.718,328,25.373,320.926
	c32.933-30.479,51.239-55.828,63.172-87.499c15.871-42.131,35.649-73.712,60.446-96.546c29.126-26.812,65.386-41.119,107.768-42.532
	c32.122-1.062,62.23,5.37,87.078,18.616c13.256,7.064,24.868,15.871,34.777,26.331c1.713,1.783,3.356,3.617,4.95,5.511
	c8.627,10.2,15.79,21.802,21.451,34.787C414.492,201.336,419.111,224.831,419.111,248.436z"/>
<path style="fill:#FF9500;" d="M419.111,248.436c0,40.147-13.376,80.615-39.035,113.328c-18.957,24.157-43.524,46.279-71.047,63.963
	c-27.062,17.393-56.409,30.158-84.873,36.921c-19.518,4.629-39.145,6.903-58.372,6.903c-39.446,0-77.189-9.548-108.89-27.824
	l321.72-302.432l4.95,5.511c8.627,10.2,15.79,21.802,21.451,34.787C414.492,201.336,419.111,224.831,419.111,248.436z"/>
<path style="fill:#11A892;" d="M512,92.357c-36.155,47.506-81.267,50.139-122.068,0.374C428.316,45.248,471.152,43.211,512,92.357z"
	/>
<path style="fill:#0F9887;" d="M512,92.357c-36.155,47.506-81.267,50.139-122.068,0.374L512,92.357z"/>
<g>
</g>
<g>
</g>
<g>
</g>
<g>
</g>
<g>
</g>
<g>
</g>
<g>
</g>
<g>
</g>
<g>
</g>
<g>
</g>
<g>
</g>
<g>
</g>
<g>
</g>
<g>
</g>
<g>
</g>
</svg>
